HIERARCHY
ROOT Hips
{
	OFFSET 0.00000 0.00000 0.00000
	CHANNELS 6 Xposition Yposition Zposition Zrotation Yrotation Xrotation 
	JOINT LHipJoint
	{
		OFFSET 0 0 0
		CHANNELS 3 Zrotation Yrotation Xrotation
		JOINT LeftUpLeg
		{
			OFFSET 1.37959 -1.78713 0.86582
			CHANNELS 3 Zrotation Yrotation Xrotation
			JOINT LeftLeg
			{
				OFFSET 2.54611 -6.99539 0.00000
				CHANNELS 3 Zrotation Yrotation Xrotation
				JOINT LeftFoot
				{
					OFFSET 2.59951 -7.14211 0.00000
					CHANNELS 3 Zrotation Yrotation Xrotation
					JOINT LeftToeBase
					{
						OFFSET 0.18493 -0.50810 1.96120
						CHANNELS 3 Zrotation Yrotation Xrotation
						End Site
						{
							OFFSET 0.00000 -0.00000 1.02054
						}
					}
				}
			}
		}
	}
	JOINT RHipJoint
	{
		OFFSET 0 0 0
		CHANNELS 3 Zrotation Yrotation Xrotation
		JOINT RightUpLeg
		{
			OFFSET -1.33564 -1.78713 0.86582
			CHANNELS 3 Zrotation Yrotation Xrotation
			JOINT RightLeg
			{
				OFFSET -2.52705 -6.94302 0.00000
				CHANNELS 3 Zrotation Yrotation Xrotation
				JOINT RightFoot
				{
					OFFSET -2.55964 -7.03257 0.00000
					CHANNELS 3 Zrotation Yrotation Xrotation
					JOINT RightToeBase
					{
						OFFSET -0.25804 -0.70896 2.12109
						CHANNELS 3 Zrotation Yrotation Xrotation
						End Site
						{
							OFFSET -0.00000 -0.00000 1.11821
						}
					}
				}
			}
		}
	}
	JOINT LowerBack
	{
		OFFSET 0 0 0
		CHANNELS 3 Zrotation Yrotation Xrotation
		JOINT Spine
		{
			OFFSET -0.02031 2.24248 -0.18900
			CHANNELS 3 Zrotation Yrotation Xrotation
			JOINT Spine1
			{
				OFFSET 0.08342 2.24689 -0.03799
				CHANNELS 3 Zrotation Yrotation Xrotation
				JOINT Neck
				{
					OFFSET 0 0 0
					CHANNELS 3 Zrotation Yrotation Xrotation
					JOINT Neck1
					{
						OFFSET -0.11607 1.55844 0.24628
						CHANNELS 3 Zrotation Yrotation Xrotation
						JOINT Head
						{
							OFFSET 0.06877 1.60174 -0.17013
							CHANNELS 3 Zrotation Yrotation Xrotation
							End Site
							{
								OFFSET 0.03358 1.61266 -0.08543
							}
						}
					}
				}
				JOINT LeftShoulder
				{
					OFFSET 0 0 0
					CHANNELS 3 Zrotation Yrotation Xrotation
					JOINT LeftArm
					{
						OFFSET 3.47537 0.55866 -0.72348
						CHANNELS 3 Zrotation Yrotation Xrotation
						JOINT LeftForeArm
						{
							OFFSET 5.38154 -0.00000 0.00000
							CHANNELS 3 Zrotation Yrotation Xrotation
							JOINT LeftHand
							{
								OFFSET 3.33312 -0.00000 0.00000
								CHANNELS 3 Zrotation Yrotation Xrotation
								JOINT LeftFingerBase
								{
									OFFSET 0 0 0
									CHANNELS 3 Zrotation Yrotation Xrotation
									JOINT LeftHandIndex1
									{
										OFFSET 0.71079 -0.00000 0.00000
										CHANNELS 3 Zrotation Yrotation Xrotation
										End Site
										{
											OFFSET 0.57306 -0.00000 0.00000
										}
									}
								}
								JOINT LThumb
								{
									OFFSET 0 0 0
									CHANNELS 3 Zrotation Yrotation Xrotation
									End Site
									{
										OFFSET 0.58181 -0.00000 0.58181
									}
								}
							}
						}
					}
				}
				JOINT RightShoulder
				{
					OFFSET 0 0 0
					CHANNELS 3 Zrotation Yrotation Xrotation
					JOINT RightArm
					{
						OFFSET -3.27844 0.90739 -0.35708
						CHANNELS 3 Zrotation Yrotation Xrotation
						JOINT RightForeArm
						{
							OFFSET -5.16954 -0.00000 0.00000
							CHANNELS 3 Zrotation Yrotation Xrotation
							JOINT RightHand
							{
								OFFSET -3.38287 -0.00000 0.00000
								CHANNELS 3 Zrotation Yrotation Xrotation
								JOINT RightFingerBase
								{
									OFFSET 0 0 0
									CHANNELS 3 Zrotation Yrotation Xrotation
									JOINT RightHandIndex1
									{
										OFFSET -0.81797 -0.00000 0.00000
										CHANNELS 3 Zrotation Yrotation Xrotation
										End Site
										{
											OFFSET -0.65947 -0.00000 0.00000
										}
									}
								}
								JOINT RThumb
								{
									OFFSET 0 0 0
									CHANNELS 3 Zrotation Yrotation Xrotation
									End Site
									{
										OFFSET -0.66953 -0.00000 0.66953
									}
								}
							}
						}
					}
				}
			}
		}
	}
}
MOTION
Frames: 5
Frame Time: .0083333
12.2754 10.1261 7.9136 0.7293 -59.3880 -28.9212 0.0000 0.0000 0.0000 10.7034 -4.8628 -59.6948 21.9086 19.9124 95.5881 -0.5212 -12.7021 3.7060 0.2145 -2.9815 -8.2274 0.0000 0.0000 0.0000 -2.2197 8.3961 -63.7856 -22.7694 -19.8151 98.1211 0.0760 5.0791 3.3407 -0.0454 -1.3748 3.7808 -3.2663 2.8374 32.2434 0.9178 1.6535 14.1329 2.3787 0.1735 -1.6016 -17.8998 -15.4516 6.9459 19.1240 -25.7862 18.4428 6.9018 -12.8724 9.6112 0.0000 -0.0000 0.0000 -90.7792 14.9933 38.1407 46.6111 -51.5338 -23.4936 -0.0000 0.0000 -30.1254 20.2280 45.3555 14.6905 -7.1250 0.0000 -0.0000 -34.5272 74.8787 -24.9926 0.0000 -0.0000 0.0000 99.0730 27.9332 22.8392 -34.7411 44.6264 -14.6312 0.0000 0.0000 10.5060 -21.9926 31.4340 -11.8943 7.1250 -0.0000 -0.0000 5.4159 3.2797 5.7420
12.2555 10.1030 7.9413 0.9537 -59.4475 -29.3208 0.0000 0.0000 0.0000 10.3811 -4.8779 -59.8905 22.1564 19.8881 96.3161 -0.4665 -12.0616 3.1381 0.3271 -3.6760 -10.1670 0.0000 0.0000 0.0000 -2.8180 8.5101 -63.5105 -22.9448 -19.7908 98.6390 0.1029 6.2019 4.9198 -0.0439 -1.3519 3.7177 -3.1591 2.8301 32.1090 0.8291 1.6784 14.1363 2.2115 0.1950 -1.5374 -17.5496 -15.5410 6.6523 18.8844 -25.8349 18.5501 6.7362 -12.8616 9.6233 -0.0000 0.0000 0.0000 -90.3719 14.5567 38.8001 46.0524 -51.2737 -23.0569 -0.0000 0.0000 -30.4426 21.0353 46.2453 15.5241 -7.1250 0.0000 -0.0000 -36.1055 75.8325 -26.8861 -0.0000 0.0000 0.0000 98.5825 27.4367 23.7479 -34.5827 44.5118 -14.5200 0.0000 0.0000 10.3725 -22.6694 30.8636 -12.0938 7.1250 -0.0000 -0.0000 4.9473 2.8404 5.2055
12.2344 10.0860 7.9718 1.1792 -59.5162 -29.6105 0.0000 0.0000 0.0000 9.9908 -4.8158 -60.1434 22.3816 19.8635 96.9786 -0.4297 -11.6557 2.4381 0.4757 -4.4233 -12.2707 0.0000 0.0000 0.0000 -3.2203 8.4410 -63.3024 -23.0832 -19.7705 99.0479 0.1525 7.5982 6.1566 -0.0329 -1.1701 3.2169 -2.8635 2.8471 31.6935 0.7320 1.7942 14.2776 1.9022 0.2651 -1.1937 -17.3831 -15.8385 6.1368 18.7912 -26.1783 18.6062 6.5623 -12.9738 9.7701 0.0000 0.0000 0.0000 -89.6825 13.8956 40.2077 45.5513 -51.0357 -22.6666 -0.0000 0.0000 -30.5835 22.9294 47.1730 17.2364 -7.1250 0.0000 -0.0000 -36.9115 77.2311 -28.5286 0.0000 0.0000 0.0000 98.1000 27.0473 24.3985 -34.5912 44.5180 -14.5260 0.0000 0.0000 10.4972 -23.9457 30.2531 -12.6118 7.1250 -0.0000 -0.0000 4.1257 2.4904 4.3121
12.2113 10.0715 7.9980 1.3334 -59.5341 -29.8061 0.0000 0.0000 0.0000 9.5345 -4.7461 -60.3265 22.5409 19.8445 97.4475 -0.3880 -11.2104 1.6177 0.2993 -3.5177 -9.7236 0.0000 0.0000 0.0000 -3.4042 8.1640 -63.1458 -23.2132 -19.7506 99.4325 0.2564 9.4937 6.9096 -0.0155 -0.8039 2.2094 -2.7129 2.8924 31.3487 0.7641 1.9184 14.2857 1.8170 0.3368 -1.0400 -17.5133 -15.9976 6.0151 18.8750 -26.3817 18.4532 6.5516 -13.0641 9.8136 -0.0000 0.0000 0.0000 -89.1679 13.5473 41.7870 45.0174 -50.7770 -22.2523 -0.0000 0.0000 -30.2966 24.6270 48.5772 18.9697 -7.1250 0.0000 -0.0000 -40.3420 78.8506 -32.5559 -0.0000 0.0000 0.0000 97.6711 26.2196 24.9355 -35.0954 44.8802 -14.8807 0.0000 0.0000 10.5035 -24.2373 29.3645 -12.4491 7.1250 -0.0000 -0.0000 3.8239 1.6341 3.9400
12.1869 10.0522 8.0255 1.3469 -59.4351 -29.9168 0.0000 0.0000 0.0000 9.0217 -4.7666 -60.4579 22.6262 19.8338 97.6989 -0.3552 -11.0922 0.2414 0.2822 -3.4163 -9.4400 0.0000 0.0000 0.0000 -3.5961 7.8854 -62.8760 -23.2957 -19.7376 99.6765 0.3895 11.2799 6.9183 -0.0226 -0.9704 2.6673 -2.6909 2.8599 31.2897 0.8299 1.9067 14.1293 1.8806 0.3412 -1.1959 -17.7351 -15.9241 6.2068 19.0157 -26.2967 18.2232 6.6622 -13.0514 9.7339 0.0000 -0.0000 0.0000 -88.8494 13.5576 43.2105 44.5612 -50.5517 -21.8994 -0.0000 0.0000 -29.8291 26.1312 50.5832 20.7562 -7.1250 0.0000 -0.0000 -48.5957 80.6071 -41.1268 0.0000 -0.0000 0.0000 97.4545 25.0480 25.5083 -35.9578 45.4840 -15.4924 0.0000 0.0000 10.5529 -23.7340 28.3490 -11.7926 7.1250 -0.0000 -0.0000 3.9708 0.4704 4.0128
